<svg xmlns="http://www.w3.org/2000/svg" xmlns:xlink="http://www.w3.org/1999/xlink" width="200" zoomAndPan="magnify" viewBox="0 0 150 74.999997" height="100" preserveAspectRatio="xMidYMid meet" version="1.0"><defs><clipPath id="64a217bc84"><path d="M 19.03125 12.136719 L 51.640625 12.136719 L 51.640625 44 L 19.03125 44 Z M 19.03125 12.136719 " clip-rule="nonzero"/></clipPath><clipPath id="84da183b69"><path d="M 2.347656 29 L 34.859375 29 L 34.859375 60.609375 L 2.347656 60.609375 Z M 2.347656 29 " clip-rule="nonzero"/></clipPath></defs><g clip-path="url(#64a217bc84)"><path fill="#67dcff" d="M 51.632812 36.417969 C 51.632812 40.449219 48.328125 43.710938 44.242188 43.710938 L 29.113281 43.710938 C 23.882812 43.710938 19.632812 39.519531 19.632812 34.359375 L 19.632812 19.429688 C 19.632812 15.398438 22.941406 12.136719 27.019531 12.136719 C 31.105469 12.136719 34.410156 15.398438 34.410156 19.429688 L 34.410156 29.132812 L 44.242188 29.132812 C 48.328125 29.132812 51.632812 32.40625 51.632812 36.417969 Z M 51.632812 36.417969 " fill-opacity="1" fill-rule="nonzero"/></g><g clip-path="url(#84da183b69)"><path fill="#587dff" d="M 2.363281 36.328125 C 2.363281 32.296875 5.667969 29.035156 9.75 29.035156 L 24.878906 29.035156 C 30.109375 29.035156 34.355469 33.226562 34.355469 38.386719 L 34.355469 53.316406 C 34.355469 57.34375 31.050781 60.609375 26.96875 60.609375 C 22.886719 60.609375 19.582031 57.34375 19.582031 53.316406 L 19.582031 43.613281 L 9.75 43.613281 C 5.667969 43.613281 2.363281 40.355469 2.363281 36.328125 Z M 2.363281 36.328125 " fill-opacity="1" fill-rule="nonzero"/></g><path fill="#2720ff" d="M 34.355469 38.386719 L 34.355469 43.710938 L 29.113281 43.710938 C 23.882812 43.710938 19.632812 39.519531 19.632812 34.359375 L 19.632812 29.035156 L 24.878906 29.035156 C 30.109375 29.035156 34.355469 33.226562 34.355469 38.386719 Z M 34.355469 38.386719 " fill-opacity="1" fill-rule="nonzero"/><path fill="#2720ff" d="M 63.648438 27.914062 L 67.378906 27.914062 L 73.332031 43.335938 L 69.8125 43.335938 L 68.480469 39.808594 L 62.542969 39.808594 L 61.230469 43.335938 L 57.710938 43.335938 Z M 67.378906 36.835938 L 65.550781 31.765625 L 65.472656 31.765625 L 63.648438 36.835938 Z M 67.378906 36.835938 " fill-opacity="1" fill-rule="nonzero"/><path fill="#2720ff" d="M 74.414062 32.546875 L 77.382812 32.546875 L 77.382812 34.070312 L 77.496094 34.070312 C 77.710938 33.757812 77.992188 33.460938 78.332031 33.195312 C 78.625 32.980469 78.980469 32.785156 79.398438 32.605469 C 79.816406 32.414062 80.316406 32.320312 80.902344 32.320312 C 81.535156 32.320312 82.144531 32.460938 82.730469 32.738281 C 83.308594 33.019531 83.824219 33.40625 84.269531 33.902344 C 84.726562 34.386719 85.078125 34.976562 85.335938 35.671875 C 85.601562 36.359375 85.734375 37.117188 85.734375 37.941406 C 85.734375 38.769531 85.601562 39.523438 85.335938 40.210938 C 85.078125 40.898438 84.726562 41.496094 84.269531 42.003906 C 83.824219 42.496094 83.308594 42.886719 82.730469 43.164062 C 82.144531 43.433594 81.535156 43.566406 80.902344 43.566406 C 80.316406 43.566406 79.816406 43.476562 79.398438 43.296875 C 78.980469 43.109375 78.625 42.898438 78.332031 42.667969 C 77.992188 42.417969 77.710938 42.125 77.496094 41.792969 L 77.382812 41.792969 L 77.382812 47.96875 L 74.414062 47.96875 Z M 80.027344 40.800781 C 80.40625 40.800781 80.757812 40.734375 81.09375 40.589844 C 81.433594 40.4375 81.726562 40.242188 81.96875 40 C 82.21875 39.746094 82.414062 39.441406 82.558594 39.085938 C 82.695312 38.734375 82.765625 38.351562 82.765625 37.941406 C 82.765625 37.523438 82.695312 37.140625 82.558594 36.796875 C 82.414062 36.445312 82.21875 36.144531 81.96875 35.902344 C 81.726562 35.648438 81.433594 35.445312 81.09375 35.292969 C 80.757812 35.140625 80.40625 35.0625 80.027344 35.0625 C 79.648438 35.0625 79.285156 35.140625 78.941406 35.292969 C 78.609375 35.445312 78.320312 35.648438 78.066406 35.902344 C 77.808594 36.144531 77.617188 36.445312 77.476562 36.796875 C 77.335938 37.140625 77.269531 37.523438 77.269531 37.941406 C 77.269531 38.351562 77.335938 38.734375 77.476562 39.085938 C 77.617188 39.441406 77.808594 39.746094 78.066406 40 C 78.320312 40.242188 78.609375 40.4375 78.941406 40.589844 C 79.285156 40.734375 79.648438 40.800781 80.027344 40.800781 Z M 80.027344 40.800781 " fill-opacity="1" fill-rule="nonzero"/><path fill="#2720ff" d="M 92.558594 43.566406 C 91.765625 43.566406 91.023438 43.417969 90.332031 43.125 C 89.632812 42.820312 89.023438 42.417969 88.503906 41.90625 C 87.980469 41.386719 87.570312 40.792969 87.265625 40.113281 C 86.972656 39.441406 86.828125 38.71875 86.828125 37.941406 C 86.828125 37.179688 86.972656 36.453125 87.265625 35.769531 C 87.570312 35.082031 87.980469 34.488281 88.503906 33.976562 C 89.023438 33.457031 89.632812 33.050781 90.332031 32.757812 C 91.023438 32.464844 91.765625 32.320312 92.558594 32.320312 C 93.339844 32.320312 94.082031 32.464844 94.78125 32.757812 C 95.476562 33.050781 96.085938 33.457031 96.609375 33.976562 C 97.128906 34.488281 97.53125 35.082031 97.828125 35.769531 C 98.132812 36.453125 98.285156 37.179688 98.285156 37.941406 C 98.285156 38.71875 98.132812 39.441406 97.828125 40.113281 C 97.53125 40.792969 97.128906 41.386719 96.609375 41.90625 C 96.085938 42.417969 95.476562 42.820312 94.78125 43.125 C 94.082031 43.417969 93.339844 43.566406 92.558594 43.566406 Z M 92.558594 40.800781 C 92.9375 40.800781 93.289062 40.734375 93.621094 40.589844 C 93.964844 40.4375 94.257812 40.242188 94.515625 40 C 94.769531 39.746094 94.964844 39.441406 95.105469 39.085938 C 95.246094 38.734375 95.316406 38.351562 95.316406 37.941406 C 95.316406 37.523438 95.246094 37.140625 95.105469 36.796875 C 94.964844 36.445312 94.769531 36.144531 94.515625 35.902344 C 94.257812 35.648438 93.964844 35.445312 93.621094 35.292969 C 93.289062 35.140625 92.9375 35.0625 92.558594 35.0625 C 92.175781 35.0625 91.816406 35.140625 91.472656 35.292969 C 91.140625 35.445312 90.847656 35.648438 90.597656 35.902344 C 90.339844 36.144531 90.144531 36.445312 90.007812 36.796875 C 89.878906 37.140625 89.816406 37.523438 89.816406 37.941406 C 89.816406 38.351562 89.878906 38.734375 90.007812 39.085938 C 90.144531 39.441406 90.339844 39.746094 90.597656 40 C 90.847656 40.242188 91.140625 40.4375 91.472656 40.589844 C 91.816406 40.734375 92.175781 40.800781 92.558594 40.800781 Z M 92.558594 40.800781 " fill-opacity="1" fill-rule="nonzero"/><path fill="#2720ff" d="M 104.535156 43.566406 C 103.433594 43.566406 102.546875 43.222656 101.890625 42.535156 C 101.230469 41.851562 100.902344 40.867188 100.902344 39.582031 L 100.902344 35.519531 L 99.039062 35.519531 L 99.039062 32.757812 L 100.027344 32.757812 C 100.835938 32.757812 101.246094 32.320312 101.246094 31.441406 L 101.246094 29.460938 L 103.871094 29.460938 L 103.871094 32.757812 L 106.304688 32.757812 L 106.304688 35.519531 L 103.871094 35.519531 L 103.871094 39.144531 C 103.871094 39.652344 103.996094 40.039062 104.25 40.304688 C 104.519531 40.5625 104.871094 40.6875 105.316406 40.6875 C 105.628906 40.6875 105.917969 40.648438 106.171875 40.574219 C 106.296875 40.546875 106.410156 40.515625 106.515625 40.476562 L 106.515625 43.222656 C 106.335938 43.289062 106.144531 43.339844 105.945312 43.394531 C 105.765625 43.441406 105.554688 43.480469 105.316406 43.507812 C 105.074219 43.546875 104.8125 43.566406 104.535156 43.566406 Z M 104.535156 43.566406 " fill-opacity="1" fill-rule="nonzero"/><path fill="#2720ff" d="M 113.441406 43.566406 C 112.652344 43.566406 111.910156 43.417969 111.21875 43.125 C 110.519531 42.820312 109.910156 42.417969 109.390625 41.90625 C 108.867188 41.386719 108.457031 40.792969 108.152344 40.113281 C 107.859375 39.441406 107.714844 38.71875 107.714844 37.941406 C 107.714844 37.179688 107.859375 36.453125 108.152344 35.769531 C 108.457031 35.082031 108.863281 34.488281 109.371094 33.976562 C 109.890625 33.457031 110.484375 33.050781 111.160156 32.757812 C 111.832031 32.464844 112.554688 32.320312 113.328125 32.320312 C 114.074219 32.320312 114.773438 32.464844 115.421875 32.757812 C 116.078125 33.039062 116.648438 33.417969 117.132812 33.902344 C 117.613281 34.386719 117.996094 34.957031 118.277344 35.617188 C 118.566406 36.265625 118.714844 36.964844 118.714844 37.714844 C 118.714844 37.917969 118.703125 38.105469 118.695312 38.265625 C 118.679688 38.417969 118.664062 38.550781 118.65625 38.667969 C 118.640625 38.808594 118.628906 38.933594 118.617188 39.046875 L 110.796875 39.046875 C 110.960938 39.542969 111.273438 39.980469 111.730469 40.363281 C 112.195312 40.734375 112.84375 40.914062 113.671875 40.914062 C 114.136719 40.914062 114.546875 40.859375 114.890625 40.742188 C 115.242188 40.621094 115.546875 40.476562 115.800781 40.324219 C 116.078125 40.148438 116.320312 39.9375 116.523438 39.695312 L 118.066406 41.792969 C 117.734375 42.125 117.335938 42.417969 116.867188 42.667969 C 116.472656 42.898438 115.992188 43.109375 115.421875 43.296875 C 114.851562 43.476562 114.191406 43.566406 113.441406 43.566406 Z M 115.648438 36.835938 C 115.484375 36.339844 115.195312 35.910156 114.773438 35.539062 C 114.355469 35.160156 113.832031 34.96875 113.214844 34.96875 C 112.605469 34.96875 112.09375 35.160156 111.671875 35.539062 C 111.253906 35.910156 110.960938 36.339844 110.796875 36.835938 Z M 115.648438 36.835938 " fill-opacity="1" fill-rule="nonzero"/><path fill="#2720ff" d="M 120.589844 27.914062 L 123.554688 27.914062 L 123.554688 36.949219 L 127.398438 32.546875 L 130.917969 32.546875 L 126.960938 37.066406 L 131.148438 43.335938 L 127.742188 43.335938 L 124.984375 39.144531 L 123.554688 40.800781 L 123.554688 43.335938 L 120.589844 43.335938 Z M 120.589844 27.914062 " fill-opacity="1" fill-rule="nonzero"/><path fill="#2720ff" d="M 132.015625 32.546875 L 134.984375 32.546875 L 134.984375 43.335938 L 132.015625 43.335938 Z M 133.5 31.097656 C 133.03125 31.097656 132.628906 30.9375 132.300781 30.601562 C 131.96875 30.273438 131.808594 29.894531 131.808594 29.460938 C 131.808594 29.015625 131.96875 28.628906 132.300781 28.296875 C 132.644531 27.96875 133.046875 27.800781 133.519531 27.800781 C 133.984375 27.800781 134.386719 27.96875 134.71875 28.296875 C 135.046875 28.628906 135.214844 29.015625 135.214844 29.460938 C 135.214844 29.894531 135.042969 30.273438 134.699219 30.601562 C 134.367188 30.9375 133.964844 31.097656 133.5 31.097656 Z M 133.5 31.097656 " fill-opacity="1" fill-rule="nonzero"/><path fill="#2720ff" d="M 137.402344 32.546875 L 140.371094 32.546875 L 140.371094 34.070312 L 140.484375 34.070312 C 140.714844 33.757812 140.984375 33.460938 141.304688 33.195312 C 141.570312 32.980469 141.898438 32.785156 142.292969 32.605469 C 142.683594 32.414062 143.148438 32.320312 143.683594 32.320312 C 144.214844 32.320312 144.71875 32.429688 145.203125 32.640625 C 145.699219 32.863281 146.121094 33.167969 146.480469 33.558594 C 146.832031 33.9375 147.109375 34.410156 147.316406 34.96875 C 147.53125 35.53125 147.640625 36.148438 147.640625 36.835938 L 147.640625 43.335938 L 144.671875 43.335938 L 144.671875 37.273438 C 144.671875 36.617188 144.492188 36.101562 144.136719 35.730469 C 143.78125 35.363281 143.300781 35.179688 142.691406 35.179688 C 142.03125 35.179688 141.480469 35.40625 141.035156 35.863281 C 140.589844 36.3125 140.371094 36.886719 140.371094 37.597656 L 140.371094 43.335938 L 137.402344 43.335938 Z M 137.402344 32.546875 " fill-opacity="1" fill-rule="nonzero"/></svg>