<svg xmlns="http://www.w3.org/2000/svg" xmlns:xlink="http://www.w3.org/1999/xlink" width="300" zoomAndPan="magnify" viewBox="0 0 224.87999 74.999997" height="100" preserveAspectRatio="xMidYMid meet" version="1.0"><defs><g/><clipPath id="97132489d4"><path d="M 66 17.503906 L 92.78125 17.503906 L 92.78125 44 L 66 44 Z M 66 17.503906 " clip-rule="nonzero"/></clipPath><clipPath id="dbfb2334d4"><path d="M 52.300781 31 L 79 31 L 79 57.234375 L 52.300781 57.234375 Z M 52.300781 31 " clip-rule="nonzero"/></clipPath></defs><g clip-path="url(#97132489d4)"><path fill="#67dcff" d="M 92.773438 37.40625 C 92.773438 40.710938 90.058594 43.382812 86.703125 43.382812 L 74.28125 43.382812 C 69.984375 43.382812 66.496094 39.949219 66.496094 35.71875 L 66.496094 23.480469 C 66.496094 20.175781 69.210938 17.503906 72.5625 17.503906 C 75.917969 17.503906 78.628906 20.175781 78.628906 23.480469 L 78.628906 31.433594 L 86.703125 31.433594 C 90.058594 31.433594 92.773438 34.117188 92.773438 37.40625 Z M 92.773438 37.40625 " fill-opacity="1" fill-rule="nonzero"/></g><g clip-path="url(#dbfb2334d4)"><path fill="#587dff" d="M 52.3125 37.332031 C 52.3125 34.027344 55.027344 31.355469 58.378906 31.355469 L 70.804688 31.355469 C 75.097656 31.355469 78.585938 34.789062 78.585938 39.019531 L 78.585938 51.257812 C 78.585938 54.558594 75.871094 57.234375 72.519531 57.234375 C 69.167969 57.234375 66.453125 54.558594 66.453125 51.257812 L 66.453125 43.304688 L 58.378906 43.304688 C 55.027344 43.304688 52.3125 40.632812 52.3125 37.332031 Z M 52.3125 37.332031 " fill-opacity="1" fill-rule="nonzero"/></g><path fill="#2720ff" d="M 78.585938 39.019531 L 78.585938 43.382812 L 74.28125 43.382812 C 69.984375 43.382812 66.496094 39.949219 66.496094 35.71875 L 66.496094 31.355469 L 70.804688 31.355469 C 75.097656 31.355469 78.585938 34.789062 78.585938 39.019531 Z M 78.585938 39.019531 " fill-opacity="1" fill-rule="nonzero"/><g fill="#2720ff" fill-opacity="1"><g transform="translate(97.671869, 43.076429)"><g><path d="M 4.96875 -12.640625 L 8.03125 -12.640625 L 12.921875 0 L 10.03125 0 L 8.9375 -2.890625 L 4.0625 -2.890625 L 2.984375 0 L 0.09375 0 Z M 8.03125 -5.328125 L 6.53125 -9.484375 L 6.46875 -9.484375 L 4.96875 -5.328125 Z M 8.03125 -5.328125 "/></g></g></g><g fill="#2720ff" fill-opacity="1"><g transform="translate(110.310294, 43.076429)"><g><path d="M 1.171875 -8.84375 L 3.609375 -8.84375 L 3.609375 -7.59375 L 3.703125 -7.59375 C 3.878906 -7.851562 4.109375 -8.09375 4.390625 -8.3125 C 4.628906 -8.488281 4.921875 -8.648438 5.265625 -8.796875 C 5.609375 -8.953125 6.019531 -9.03125 6.5 -9.03125 C 7.019531 -9.03125 7.519531 -8.914062 8 -8.6875 C 8.476562 -8.457031 8.898438 -8.140625 9.265625 -7.734375 C 9.640625 -7.335938 9.929688 -6.851562 10.140625 -6.28125 C 10.359375 -5.71875 10.46875 -5.097656 10.46875 -4.421875 C 10.46875 -3.742188 10.359375 -3.125 10.140625 -2.5625 C 9.929688 -2 9.640625 -1.507812 9.265625 -1.09375 C 8.898438 -0.6875 8.476562 -0.367188 8 -0.140625 C 7.519531 0.078125 7.019531 0.1875 6.5 0.1875 C 6.019531 0.1875 5.609375 0.113281 5.265625 -0.03125 C 4.921875 -0.1875 4.628906 -0.359375 4.390625 -0.546875 C 4.109375 -0.753906 3.878906 -0.992188 3.703125 -1.265625 L 3.609375 -1.265625 L 3.609375 3.796875 L 1.171875 3.796875 Z M 5.78125 -2.078125 C 6.09375 -2.078125 6.382812 -2.132812 6.65625 -2.25 C 6.9375 -2.375 7.175781 -2.535156 7.375 -2.734375 C 7.582031 -2.941406 7.742188 -3.191406 7.859375 -3.484375 C 7.972656 -3.773438 8.03125 -4.085938 8.03125 -4.421875 C 8.03125 -4.765625 7.972656 -5.078125 7.859375 -5.359375 C 7.742188 -5.648438 7.582031 -5.894531 7.375 -6.09375 C 7.175781 -6.300781 6.9375 -6.46875 6.65625 -6.59375 C 6.382812 -6.71875 6.09375 -6.78125 5.78125 -6.78125 C 5.46875 -6.78125 5.171875 -6.71875 4.890625 -6.59375 C 4.617188 -6.46875 4.378906 -6.300781 4.171875 -6.09375 C 3.960938 -5.894531 3.800781 -5.648438 3.6875 -5.359375 C 3.570312 -5.078125 3.515625 -4.765625 3.515625 -4.421875 C 3.515625 -4.085938 3.570312 -3.773438 3.6875 -3.484375 C 3.800781 -3.191406 3.960938 -2.941406 4.171875 -2.734375 C 4.378906 -2.535156 4.617188 -2.375 4.890625 -2.25 C 5.171875 -2.132812 5.46875 -2.078125 5.78125 -2.078125 Z M 5.78125 -2.078125 "/></g></g></g><g fill="#2720ff" fill-opacity="1"><g transform="translate(121.052947, 43.076429)"><g><path d="M 5.328125 0.1875 C 4.679688 0.1875 4.070312 0.0664062 3.5 -0.171875 C 2.925781 -0.421875 2.425781 -0.753906 2 -1.171875 C 1.570312 -1.597656 1.234375 -2.085938 0.984375 -2.640625 C 0.742188 -3.191406 0.625 -3.785156 0.625 -4.421875 C 0.625 -5.046875 0.742188 -5.640625 0.984375 -6.203125 C 1.234375 -6.765625 1.570312 -7.253906 2 -7.671875 C 2.425781 -8.097656 2.925781 -8.429688 3.5 -8.671875 C 4.070312 -8.910156 4.679688 -9.03125 5.328125 -9.03125 C 5.972656 -9.03125 6.582031 -8.910156 7.15625 -8.671875 C 7.726562 -8.429688 8.226562 -8.097656 8.65625 -7.671875 C 9.082031 -7.253906 9.414062 -6.765625 9.65625 -6.203125 C 9.90625 -5.640625 10.03125 -5.046875 10.03125 -4.421875 C 10.03125 -3.785156 9.90625 -3.191406 9.65625 -2.640625 C 9.414062 -2.085938 9.082031 -1.597656 8.65625 -1.171875 C 8.226562 -0.753906 7.726562 -0.421875 7.15625 -0.171875 C 6.582031 0.0664062 5.972656 0.1875 5.328125 0.1875 Z M 5.328125 -2.078125 C 5.640625 -2.078125 5.929688 -2.132812 6.203125 -2.25 C 6.484375 -2.375 6.726562 -2.535156 6.9375 -2.734375 C 7.144531 -2.941406 7.304688 -3.191406 7.421875 -3.484375 C 7.535156 -3.773438 7.59375 -4.085938 7.59375 -4.421875 C 7.59375 -4.765625 7.535156 -5.078125 7.421875 -5.359375 C 7.304688 -5.648438 7.144531 -5.894531 6.9375 -6.09375 C 6.726562 -6.300781 6.484375 -6.46875 6.203125 -6.59375 C 5.929688 -6.71875 5.640625 -6.78125 5.328125 -6.78125 C 5.015625 -6.78125 4.71875 -6.71875 4.4375 -6.59375 C 4.164062 -6.46875 3.925781 -6.300781 3.71875 -6.09375 C 3.507812 -5.894531 3.347656 -5.648438 3.234375 -5.359375 C 3.128906 -5.078125 3.078125 -4.765625 3.078125 -4.421875 C 3.078125 -4.085938 3.128906 -3.773438 3.234375 -3.484375 C 3.347656 -3.191406 3.507812 -2.941406 3.71875 -2.734375 C 3.925781 -2.535156 4.164062 -2.375 4.4375 -2.25 C 4.71875 -2.132812 5.015625 -2.078125 5.328125 -2.078125 Z M 5.328125 -2.078125 "/></g></g></g><g fill="#2720ff" fill-opacity="1"><g transform="translate(131.34423, 43.076429)"><g><path d="M 4.875 0.1875 C 3.96875 0.1875 3.242188 -0.09375 2.703125 -0.65625 C 2.160156 -1.21875 1.890625 -2.023438 1.890625 -3.078125 L 1.890625 -6.40625 L 0.359375 -6.40625 L 0.359375 -8.671875 L 1.171875 -8.671875 C 1.835938 -8.671875 2.171875 -9.03125 2.171875 -9.75 L 2.171875 -11.375 L 4.328125 -11.375 L 4.328125 -8.671875 L 6.328125 -8.671875 L 6.328125 -6.40625 L 4.328125 -6.40625 L 4.328125 -3.4375 C 4.328125 -3.019531 4.429688 -2.703125 4.640625 -2.484375 C 4.859375 -2.273438 5.148438 -2.171875 5.515625 -2.171875 C 5.773438 -2.171875 6.007812 -2.203125 6.21875 -2.265625 C 6.320312 -2.285156 6.414062 -2.3125 6.5 -2.34375 L 6.5 -0.09375 C 6.351562 -0.0390625 6.195312 0.00390625 6.03125 0.046875 C 5.882812 0.0859375 5.710938 0.117188 5.515625 0.140625 C 5.316406 0.171875 5.101562 0.1875 4.875 0.1875 Z M 4.875 0.1875 "/></g></g></g><g fill="#2720ff" fill-opacity="1"><g transform="translate(138.205069, 43.076429)"><g><path d="M 5.328125 0.1875 C 4.679688 0.1875 4.070312 0.0664062 3.5 -0.171875 C 2.925781 -0.421875 2.425781 -0.753906 2 -1.171875 C 1.570312 -1.597656 1.234375 -2.085938 0.984375 -2.640625 C 0.742188 -3.191406 0.625 -3.785156 0.625 -4.421875 C 0.625 -5.046875 0.742188 -5.640625 0.984375 -6.203125 C 1.234375 -6.765625 1.566406 -7.253906 1.984375 -7.671875 C 2.410156 -8.097656 2.898438 -8.429688 3.453125 -8.671875 C 4.003906 -8.910156 4.597656 -9.03125 5.234375 -9.03125 C 5.847656 -9.03125 6.421875 -8.910156 6.953125 -8.671875 C 7.492188 -8.441406 7.960938 -8.128906 8.359375 -7.734375 C 8.753906 -7.335938 9.066406 -6.867188 9.296875 -6.328125 C 9.535156 -5.796875 9.65625 -5.222656 9.65625 -4.609375 C 9.65625 -4.441406 9.648438 -4.289062 9.640625 -4.15625 C 9.628906 -4.03125 9.617188 -3.921875 9.609375 -3.828125 C 9.597656 -3.710938 9.585938 -3.609375 9.578125 -3.515625 L 3.15625 -3.515625 C 3.289062 -3.109375 3.546875 -2.75 3.921875 -2.4375 C 4.304688 -2.132812 4.835938 -1.984375 5.515625 -1.984375 C 5.898438 -1.984375 6.234375 -2.03125 6.515625 -2.125 C 6.804688 -2.226562 7.054688 -2.34375 7.265625 -2.46875 C 7.492188 -2.613281 7.691406 -2.785156 7.859375 -2.984375 L 9.125 -1.265625 C 8.851562 -0.992188 8.523438 -0.753906 8.140625 -0.546875 C 7.816406 -0.359375 7.421875 -0.1875 6.953125 -0.03125 C 6.484375 0.113281 5.941406 0.1875 5.328125 0.1875 Z M 7.140625 -5.328125 C 7.003906 -5.734375 6.765625 -6.085938 6.421875 -6.390625 C 6.078125 -6.703125 5.648438 -6.859375 5.140625 -6.859375 C 4.640625 -6.859375 4.21875 -6.703125 3.875 -6.390625 C 3.53125 -6.085938 3.289062 -5.734375 3.15625 -5.328125 Z M 7.140625 -5.328125 "/></g></g></g><g fill="#2720ff" fill-opacity="1"><g transform="translate(148.135249, 43.076429)"><g><path d="M 1.265625 -12.640625 L 3.703125 -12.640625 L 3.703125 -5.234375 L 6.859375 -8.84375 L 9.75 -8.84375 L 6.5 -5.140625 L 9.9375 0 L 7.140625 0 L 4.875 -3.4375 L 3.703125 -2.078125 L 3.703125 0 L 1.265625 0 Z M 1.265625 -12.640625 "/></g></g></g><g fill="#2720ff" fill-opacity="1"><g transform="translate(157.614062, 43.076429)"><g><path d="M 1.171875 -8.84375 L 3.609375 -8.84375 L 3.609375 0 L 1.171875 0 Z M 2.390625 -10.03125 C 2.003906 -10.03125 1.675781 -10.164062 1.40625 -10.4375 C 1.132812 -10.707031 1 -11.019531 1 -11.375 C 1 -11.738281 1.132812 -12.054688 1.40625 -12.328125 C 1.6875 -12.597656 2.019531 -12.734375 2.40625 -12.734375 C 2.789062 -12.734375 3.117188 -12.597656 3.390625 -12.328125 C 3.660156 -12.054688 3.796875 -11.738281 3.796875 -11.375 C 3.796875 -11.019531 3.65625 -10.707031 3.375 -10.4375 C 3.101562 -10.164062 2.773438 -10.03125 2.390625 -10.03125 Z M 2.390625 -10.03125 "/></g></g></g><g fill="#2720ff" fill-opacity="1"><g transform="translate(162.037488, 43.076429)"><g><path d="M 1.171875 -8.84375 L 3.609375 -8.84375 L 3.609375 -7.59375 L 3.703125 -7.59375 C 3.890625 -7.851562 4.113281 -8.09375 4.375 -8.3125 C 4.59375 -8.488281 4.863281 -8.648438 5.1875 -8.796875 C 5.507812 -8.953125 5.890625 -9.03125 6.328125 -9.03125 C 6.765625 -9.03125 7.179688 -8.941406 7.578125 -8.765625 C 7.984375 -8.585938 8.332031 -8.335938 8.625 -8.015625 C 8.914062 -7.703125 9.144531 -7.316406 9.3125 -6.859375 C 9.488281 -6.398438 9.578125 -5.890625 9.578125 -5.328125 L 9.578125 0 L 7.140625 0 L 7.140625 -4.96875 C 7.140625 -5.507812 6.992188 -5.929688 6.703125 -6.234375 C 6.410156 -6.535156 6.015625 -6.6875 5.515625 -6.6875 C 4.972656 -6.6875 4.519531 -6.5 4.15625 -6.125 C 3.789062 -5.757812 3.609375 -5.285156 3.609375 -4.703125 L 3.609375 0 L 1.171875 0 Z M 1.171875 -8.84375 "/></g></g></g></svg>